<?xml version="1.0" standalone="no"?>
<!DOCTYPE svg PUBLIC "-//W3C//DTD SVG 20010904//EN"
 "http://www.w3.org/TR/2001/REC-SVG-20010904/DTD/svg10.dtd">
<svg version="1.0" xmlns="http://www.w3.org/2000/svg"
 width="28.000000pt" height="28.000000pt" viewBox="0 0 28.000000 28.000000"
 preserveAspectRatio="xMidYMid meet">

<g transform="translate(0.000000,28.000000) scale(0.100000,-0.100000)"
fill="#000000" stroke="none">
<path d="M37 184 c-11 -11 -9 -82 3 -89 6 -4 10 7 10 26 0 27 2 30 15 19 12
-10 18 -10 30 0 13 11 15 8 15 -19 0 -19 4 -30 10 -26 11 7 14 78 3 89 -4 4
-15 -3 -24 -16 l-17 -22 -19 23 c-10 12 -22 19 -26 15z"/>
<path d="M150 180 c0 -9 37 -15 70 -10 10 1 7 -7 -10 -27 l-25 -28 28 24 c40
36 35 51 -18 51 -25 0 -45 -4 -45 -10z"/>
<path d="M174 138 l-19 -23 23 19 c21 18 27 26 19 26 -2 0 -12 -10 -23 -22z"/>
<path d="M168 112 c-36 -7 -17 -22 27 -22 25 0 45 4 45 9 0 10 -46 18 -72 13z"/>
</g>
</svg>
